<svg xmlns="http://www.w3.org/2000/svg" xmlns:xlink="http://www.w3.org/1999/xlink"><symbol id="icon-arrow-down" viewBox="0 0 16 16">
<path d="M8 1V15" stroke="white" stroke-width="2" stroke-linecap="round" stroke-linejoin="round"/>
<path d="M15 8L8 15L1 8" stroke="white" stroke-width="2" stroke-linecap="round" stroke-linejoin="round"/>
</symbol><symbol id="icon-check" viewBox="0 0 22 22">
<path fill-rule="evenodd" clip-rule="evenodd" d="M17.6138 5.21059C18.0498 5.54958 18.1285 6.17784 17.7895 6.61385L10.0145 16.6138C9.84138 16.8365 9.58223 16.9758 9.30094 16.9972C9.01966 17.0186 8.74242 16.9202 8.53757 16.7262L4.3125 12.7262C3.91144 12.3465 3.89412 11.7136 4.27382 11.3126C4.65351 10.9115 5.28644 10.8942 5.6875 11.2739L9.11216 14.5161L16.2105 5.38625C16.5495 4.95024 17.1778 4.87159 17.6138 5.21059Z"/>
</symbol><symbol id="icon-close" viewBox="0 0 24 25">
<path d="M1 23.7213L23 1M23 23.7213L1 1" stroke="#141517" stroke-opacity="0.2" stroke-linecap="round" stroke-linejoin="round"/>
</symbol><symbol id="icon-mail" viewBox="0 0 26 20">
<path d="M24.2273 0H1.77273C0.768182 0 0 0.764706 0 1.76471V18.2353C0 19.2353 0.768182 20 1.77273 20H24.2273C25.2318 20 26 19.2353 26 18.2353V1.76471C26 0.764706 25.2318 0 24.2273 0ZM24.2273 17L19.5591 12.3529C19.2045 12 18.6727 12 18.3182 12.3529C17.9636 12.7059 17.9636 13.2353 18.3182 13.5882L22.9864 18.2353H3.01362L7.68182 13.5882C8.03636 13.2353 8.03636 12.7059 7.68182 12.3529C7.32727 12 6.79547 12 6.44092 12.3529L1.77273 17V5.70585L12.4091 13.7059C12.5864 13.8236 12.7636 13.8823 12.9409 13.8823C13.1182 13.8823 13.2954 13.8236 13.4727 13.7059L24.2273 5.70585V17ZM24.2273 1.76471V3.4706L12.9409 11.8235L1.77273 3.4706V1.76471H24.2273Z" fill="#D7D9DF"/>
</symbol><symbol id="icon-menu" viewBox="0 0 30 30">
<path fill-rule="evenodd" clip-rule="evenodd" d="M3.75 21H26.25V20H3.75V21ZM3.75 14.75H26.25V13.75H3.75V14.75ZM3.75 7.5V8.5H26.25V7.5H3.75Z" fill="white"/>
</symbol><symbol id="icon-phone" viewBox="0 0 30 30">
<style type="text/css">
	.st0{fill:none;}
</style>
<path class="st0" d="M7.4,8.6C7.3,7.4,7.6,6.2,8.3,5.3C8.9,4.4,9.7,4,10.6,3.7c0.8-0.2,1.3,0.1,1.6,1c0.3,1.3,0.8,2.7,1,4.1
	c0.1,0.6-0.3,1.5-0.8,2c-1.1,1.1-0.9,1.9,0,3.5c0.3,0.5,0.7,1.4,1.5,2.6c0.8,1.2,1.3,1.9,2.3,1.3c1.2-0.6,2-0.2,2.9,0.7
	c0.6,0.7,1.3,1.3,1.9,2c0.9,1,0.8,1.7,0.2,2.5c-1.2,1.3-3.3,1.8-4.8,0.9c-0.8-0.5-1.7-1.1-2.3-1.9c-2.9-3.3-5-7.2-6.3-11.5
	C7.5,10,7.4,9.3,7.4,8.6z"/>
</symbol><symbol id="icon-requerd-symbol" viewBox="0 0 6 7">
<path d="M3.519 6.028L3.434 4.158L4.998 5.161L5.542 4.243L3.893 3.393L5.542 2.543L4.998 1.608L3.434 2.611L3.519 0.740999H2.448L2.533 2.611L0.952 1.608L0.425 2.543L2.074 3.393L0.425 4.243L0.952 5.161L2.533 4.158L2.448 6.028H3.519Z" fill="#FE7865"/>
</symbol><symbol id="icon-shape-arrow" viewBox="0 0 8 12">
<path fill-rule="evenodd" clip-rule="evenodd" d="M0 1.4L4.6 6L0 10.6L1.4 12L7.4 6L1.4 0L0 1.4Z" fill="#2C2E3F" fill-opacity="0.5"/>
</symbol></svg>